<svg xmlns="http://www.w3.org/2000/svg" xmlns:xlink="http://www.w3.org/1999/xlink" width="224.712" height="253.166" viewBox="0 0 224.712 253.166"><defs><style>.a{opacity:0.24;}.b{opacity:0.2;}.c,.v{fill:rgba(76,150,59,0);}.d{fill:url(#a);}.e{fill:url(#b);}.f{fill:url(#c);}.g{fill:url(#d);}.h{fill:url(#e);}.i{fill:url(#f);}.j{fill:url(#g);}.k{opacity:0.102;}.l{fill:url(#aj);}.m{fill:url(#ak);}.n{fill:url(#al);}.o{fill:url(#am);}.p{fill:url(#an);}.q{fill:url(#ao);}.r{fill:url(#ap);}.s{fill:url(#ax);}.t{fill:url(#ay);}.u{fill:url(#az);}.v{stroke-linejoin:round;}.w{fill:url(#bn);}.x,.y{stroke:none;}.y{fill:#4c963b;}</style><linearGradient id="a" x1="0.977" y1="1.25" x2="0.023" y2="-0.25" gradientUnits="objectBoundingBox"><stop offset="0" stop-color="#fff"/><stop offset="0.347" stop-color="#ecfff8"/><stop offset="0.99" stop-color="#d8fff1"/><stop offset="1" stop-color="#d8fff1"/></linearGradient><linearGradient id="b" x1="0.977" y1="1.25" x2="0.023" y2="-0.25" gradientUnits="objectBoundingBox"><stop offset="0" stop-color="#91989f"/><stop offset="0.35" stop-color="#68717a"/><stop offset="1" stop-color="#3e4a55"/></linearGradient><linearGradient id="c" x1="0.769" x2="0.231" xlink:href="#a"/><linearGradient id="d" x1="0.769" y1="1.25" x2="0.231" y2="-0.25" gradientUnits="objectBoundingBox"><stop offset="0" stop-color="#fff"/><stop offset="0.35" stop-color="#9fa5aa"/><stop offset="1" stop-color="#3e4a55"/></linearGradient><linearGradient id="e" x1="0.769" y1="1.25" x2="0.231" y2="-0.25" gradientUnits="objectBoundingBox"><stop offset="0" stop-color="#a9aeb3"/><stop offset="0.35" stop-color="#7b838b"/><stop offset="1" stop-color="#4d5862"/></linearGradient><linearGradient id="f" x1="1.25" y1="1.204" x2="-0.25" y2="-0.204" xlink:href="#d"/><linearGradient id="g" x1="1.25" y1="1.204" x2="-0.25" y2="-0.204" xlink:href="#b"/><linearGradient id="aj" x1="0.982" x2="0.018" xlink:href="#a"/><linearGradient id="ak" x1="0.982" x2="0.018" xlink:href="#b"/><linearGradient id="al" x1="0.773" x2="0.227" xlink:href="#a"/><linearGradient id="am" x1="0.773" x2="0.227" xlink:href="#d"/><linearGradient id="an" x1="0.773" x2="0.227" xlink:href="#e"/><linearGradient id="ao" x1="1.25" y1="1.196" x2="-0.25" y2="-0.196" xlink:href="#d"/><linearGradient id="ap" x1="1.25" y1="1.196" x2="-0.25" y2="-0.196" xlink:href="#b"/><linearGradient id="ax" x1="0.833" y1="1" x2="0.167" gradientUnits="objectBoundingBox"><stop offset="0" stop-color="#fff"/><stop offset="0.49" stop-color="#aedecc"/><stop offset="1" stop-color="#5cbc99"/></linearGradient><linearGradient id="ay" x1="0.696" y1="1" x2="0.304" gradientUnits="objectBoundingBox"><stop offset="0" stop-color="#5cbc99"/><stop offset="0.51" stop-color="#aedecc"/><stop offset="1" stop-color="#fff"/></linearGradient><linearGradient id="az" x1="0" y1="0.583" x2="1" y2="0.417" xlink:href="#ax"/><linearGradient id="bn" x1="0.847" x2="0.153" xlink:href="#ax"/></defs><g class="a" transform="translate(-13.997 -17.446)"><g class="b"><path class="c" d="M80.356,244.271l13.494-53.4L147.694,175.8,133.9,229.5Z"/><path class="d" d="M80.356,244.271l13.494-53.4L147.694,175.8,133.9,229.5Z"/><path class="e" d="M80.356,244.271l13.494-53.4L147.694,175.8,133.9,229.5Z"/><path class="c" d="M93.155,191.306,52.492,152.688l54.453-15.7L147,176.226Z"/><path class="f" d="M93.155,191.306,52.492,152.688l54.453-15.7L147,176.226Z"/><path class="g" d="M93.155,191.306,52.492,152.688l54.453-15.7L147,176.226Z"/><path class="h" d="M93.155,191.306,52.492,152.688l54.453-15.7L147,176.226Z"/><path class="c" d="M40,206.083l40.358,38.928,13.8-53.705L53.492,152.688Z"/><path class="i" d="M40,206.083l40.358,38.928,13.8-53.705L53.492,152.688Z"/><path class="j" d="M40,206.083l40.358,38.928,13.8-53.705L53.492,152.688Z"/></g><g class="b"><path class="c" d="M80.356,244.271l13.494-53.4L147.694,175.8,133.9,229.5Z"/><path class="d" d="M80.356,244.271l13.494-53.4L147.694,175.8,133.9,229.5Z"/><path class="e" d="M80.356,244.271l13.494-53.4L147.694,175.8,133.9,229.5Z"/><path class="c" d="M93.155,191.306,52.492,152.688l54.453-15.7L147,176.226Z"/><path class="f" d="M93.155,191.306,52.492,152.688l54.453-15.7L147,176.226Z"/><path class="g" d="M93.155,191.306,52.492,152.688l54.453-15.7L147,176.226Z"/><path class="h" d="M93.155,191.306,52.492,152.688l54.453-15.7L147,176.226Z"/><path class="c" d="M40,206.083l40.358,38.928,13.8-53.705L53.492,152.688Z"/><path class="i" d="M40,206.083l40.358,38.928,13.8-53.705L53.492,152.688Z"/><path class="j" d="M40,206.083l40.358,38.928,13.8-53.705L53.492,152.688Z"/></g><g class="b"><path class="c" d="M80.356,244.271l13.494-53.4L147.694,175.8,133.9,229.5Z"/><path class="d" d="M80.356,244.271l13.494-53.4L147.694,175.8,133.9,229.5Z"/><path class="e" d="M80.356,244.271l13.494-53.4L147.694,175.8,133.9,229.5Z"/><path class="c" d="M93.155,191.306,52.492,152.688l54.453-15.7L147,176.226Z"/><path class="f" d="M93.155,191.306,52.492,152.688l54.453-15.7L147,176.226Z"/><path class="g" d="M93.155,191.306,52.492,152.688l54.453-15.7L147,176.226Z"/><path class="h" d="M93.155,191.306,52.492,152.688l54.453-15.7L147,176.226Z"/><path class="c" d="M40,206.083l40.358,38.928,13.8-53.705L53.492,152.688Z"/><path class="i" d="M40,206.083l40.358,38.928,13.8-53.705L53.492,152.688Z"/><path class="j" d="M40,206.083l40.358,38.928,13.8-53.705L53.492,152.688Z"/></g><g class="b"><path class="c" d="M80.356,244.271l13.494-53.4L147.694,175.8,133.9,229.5Z"/><path class="d" d="M80.356,244.271l13.494-53.4L147.694,175.8,133.9,229.5Z"/><path class="e" d="M80.356,244.271l13.494-53.4L147.694,175.8,133.9,229.5Z"/><path class="c" d="M93.155,191.306,52.492,152.688l54.453-15.7L147,176.226Z"/><path class="f" d="M93.155,191.306,52.492,152.688l54.453-15.7L147,176.226Z"/><path class="g" d="M93.155,191.306,52.492,152.688l54.453-15.7L147,176.226Z"/><path class="h" d="M93.155,191.306,52.492,152.688l54.453-15.7L147,176.226Z"/><path class="c" d="M40,206.083l40.358,38.928,13.8-53.705L53.492,152.688Z"/><path class="i" d="M40,206.083l40.358,38.928,13.8-53.705L53.492,152.688Z"/><path class="j" d="M40,206.083l40.358,38.928,13.8-53.705L53.492,152.688Z"/></g><g class="k"><path class="c" d="M73.962,269.523l19.891-78.705,79.367-22.227-20.34,79.162Z"/><path class="d" d="M73.962,269.523l19.891-78.705,79.367-22.227-20.34,79.162Z"/><path class="e" d="M73.962,269.523l19.891-78.705,79.367-22.227-20.34,79.162Z"/><path class="c" d="M92.828,191.45,32.892,134.527l80.265-23.14L172.2,169.224Z"/><path class="f" d="M92.828,191.45,32.892,134.527l80.265-23.14L172.2,169.224Z"/><path class="g" d="M92.828,191.45,32.892,134.527l80.265-23.14L172.2,169.224Z"/><path class="h" d="M92.828,191.45,32.892,134.527l80.265-23.14L172.2,169.224Z"/><path class="c" d="M14.475,213.232l59.488,57.38L94.3,191.45,34.366,134.527Z"/><path class="i" d="M14.475,213.232l59.488,57.38L94.3,191.45,34.366,134.527Z"/><path class="j" d="M14.475,213.232l59.488,57.38L94.3,191.45,34.366,134.527Z"/></g><g class="b"><path class="c" d="M172.014,117.433,182.385,75.9l41.38-11.728-10.6,41.771Z"/><path class="l" d="M172.014,117.433,182.385,75.9l41.38-11.728-10.6,41.771Z"/><path class="m" d="M172.014,117.433,182.385,75.9l41.38-11.728-10.6,41.771Z"/><path class="c" d="M182.619,76.238,151.369,46.2l41.848-12.21L224,64.509Z"/><path class="n" d="M182.619,76.238,151.369,46.2l41.848-12.21L224,64.509Z"/><path class="o" d="M182.619,76.238,151.369,46.2l41.848-12.21L224,64.509Z"/><path class="p" d="M182.619,76.238,151.369,46.2l41.848-12.21L224,64.509Z"/><path class="c" d="M141,87.731l31.016,30.277,10.6-41.771L151.369,46.2Z"/><path class="q" d="M141,87.731l31.016,30.277,10.6-41.771L151.369,46.2Z"/><path class="r" d="M141,87.731l31.016,30.277,10.6-41.771L151.369,46.2Z"/></g><g class="b"><path class="c" d="M172.014,117.433,182.385,75.9l41.38-11.728-10.6,41.771Z"/><path class="l" d="M172.014,117.433,182.385,75.9l41.38-11.728-10.6,41.771Z"/><path class="m" d="M172.014,117.433,182.385,75.9l41.38-11.728-10.6,41.771Z"/><path class="c" d="M182.619,76.238,151.369,46.2l41.848-12.21L224,64.509Z"/><path class="n" d="M182.619,76.238,151.369,46.2l41.848-12.21L224,64.509Z"/><path class="o" d="M182.619,76.238,151.369,46.2l41.848-12.21L224,64.509Z"/><path class="p" d="M182.619,76.238,151.369,46.2l41.848-12.21L224,64.509Z"/><path class="c" d="M141,87.731l31.016,30.277,10.6-41.771L151.369,46.2Z"/><path class="q" d="M141,87.731l31.016,30.277,10.6-41.771L151.369,46.2Z"/><path class="r" d="M141,87.731l31.016,30.277,10.6-41.771L151.369,46.2Z"/></g><g transform="translate(140 32)"><path class="s" d="M31.967,86.3,42.657,43.5,86,33,74.378,74.462Z"/><path class="t" d="M42.9,44.182l-32.21-30.96L53.823.637,85.55,32.093Z"/><path class="u" d="M0,54.687,31.967,85.895,42.9,42.84l-32.21-30.96Z"/></g><g transform="translate(38 132)"><path class="s" d="M42.375,114.4l14.17-56.743L114,43.744,98.594,98.705Z"/><path class="t" d="M56.865,58.566l-42.7-41.039L71.346.844l42.058,41.7Z"/><path class="u" d="M0,72.492l42.378,41.369,14.49-57.073-42.7-41.039Z"/></g><g class="b" transform="translate(14 109)"><path class="s" d="M59.474,160.562,79.362,80.923,160,61.4l-21.622,77.139Z"/><path class="t" d="M79.811,82.2,19.884,24.6,100.135,1.185l59.028,58.523Z"/><path class="u" d="M0,101.743,59.474,159.8,79.811,79.7,19.884,22.1Z"/></g><g transform="translate(123 16)"><g class="k"><g class="v"><path class="x" d="M 45.99052047729492 115.4074249267578 L 59.75894546508789 60.27158737182617 L 114.6940765380859 44.70163345336914 L 100.6146392822266 100.1573867797852 L 45.99052047729492 115.4074249267578 Z"/><path class="y" d="M 46.68385696411133 114.6947326660156 L 100.2012710571289 99.75366973876953 L 113.9960327148438 45.41916656494141 L 60.17389678955078 60.67367172241211 L 46.68385696411133 114.6947326660156 M 45.29720306396484 116.1201019287109 L 59.34400177001953 59.86950302124023 L 115.3921051025391 43.98410034179688 L 101.0279998779297 100.5611038208008 L 45.29720306396484 116.1201019287109 Z"/></g><g class="v"><path class="x" d="M 59.80086898803711 59.76262283325195 L 18.30352020263672 19.87686157226562 L 73.87400054931641 3.663014888763428 L 114.7492828369141 44.18887329101562 L 59.80086898803711 59.76262283325195 Z"/><path class="y" d="M 59.94052886962891 59.20335006713867 L 113.7893524169922 43.94124984741211 L 73.73120880126953 4.225532531738281 L 19.27273178100586 20.11491966247559 L 59.94052886962891 59.20335006713867 M 59.66120529174805 60.32190704345703 L 17.33429718017578 19.63880157470703 L 74.01680755615234 3.100507497787476 L 115.7092056274414 44.43650817871094 L 59.66120529174805 60.32190704345703 Z"/></g><g class="v"><path class="x" d="M 45.02595901489258 115.9353866577148 L 3.842132568359375 75.73209381103516 L 17.6102352142334 20.5975399017334 L 59.1049919128418 60.48081588745117 L 45.02595901489258 115.9353866577148 Z"/><path class="y" d="M 44.75471878051758 114.9718627929688 L 58.54878616333008 60.63972473144531 L 17.88618087768555 21.55628395080566 L 4.396774768829346 75.57479095458984 L 44.75471878051758 114.9718627929688 M 45.29720306396484 116.8989028930664 L 3.287496566772461 75.88939666748047 L 17.33429718017578 19.6387996673584 L 59.66120147705078 60.32190704345703 L 45.29720306396484 116.8989028930664 Z"/></g></g></g><g class="b"><path class="c" d="M60.832,80.564,68.8,48.652l31.8-9.012-8.149,32.1Z"/><path class="l" d="M60.832,80.564,68.8,48.652l31.8-9.012-8.149,32.1Z"/><path class="m" d="M60.832,80.564,68.8,48.652l31.8-9.012-8.149,32.1Z"/><path class="c" d="M68.981,49.909,44.968,26.829l32.157-9.382L100.778,40.9Z"/><path class="n" d="M68.981,49.909,44.968,26.829l32.157-9.382L100.778,40.9Z"/><path class="o" d="M68.981,49.909,44.968,26.829l32.157-9.382L100.778,40.9Z"/><path class="p" d="M68.981,49.909,44.968,26.829l32.157-9.382L100.778,40.9Z"/><path class="c" d="M37,57.741,60.832,81.006l8.149-32.1L44.968,25.829Z"/><path class="q" d="M37,57.741,60.832,81.006l8.149-32.1L44.968,25.829Z"/><path class="r" d="M37,57.741,60.832,81.006l8.149-32.1L44.968,25.829Z"/></g><path class="w" d="M60.832,80.564,68.8,48.652l31.8-9.012-8.149,32.1Z"/><path class="t" d="M68.981,49.909,44.968,26.829l32.157-9.382L100.778,40.9Z"/><path class="u" d="M37,57.741,60.832,81.006l8.149-32.1L44.968,25.829Z"/></g></svg>