<svg xmlns="http://www.w3.org/2000/svg" xmlns:xlink="http://www.w3.org/1999/xlink" width="122.793" height="25.359" viewBox="0 0 122.793 25.359"><defs><style>.a{fill:url(#a);}.b{fill:#fff;}</style><linearGradient id="a" x1="1.604" y1="0.71" x2="-0.604" y2="0.29" gradientUnits="objectBoundingBox"><stop offset="0" stop-color="#fff"/><stop offset="1" stop-color="#d5d5d5"/></linearGradient></defs><g transform="translate(-452.883 -579.789)"><rect class="a" width="4.875" height="12.925" rx="2.438" transform="translate(495.84 605.148) rotate(-90)"/><path class="b" d="M501.655,579.789a2.642,2.642,0,1,0,2.642,2.643A2.643,2.643,0,0,0,501.655,579.789Zm0,4.138a1.5,1.5,0,1,1,1.5-1.495A1.5,1.5,0,0,1,501.655,583.927Z"/><path class="b" d="M490.3,586.828a2.446,2.446,0,0,0-2.824,1.978L485.1,602.288a2.437,2.437,0,0,0,4.8.846l2.377-13.482A2.445,2.445,0,0,0,490.3,586.828Z"/><path class="b" d="M474.58,586.828a2.445,2.445,0,0,0-2.823,1.978l-2.378,13.482a2.437,2.437,0,0,0,4.8.846l2.378-13.482A2.446,2.446,0,0,0,474.58,586.828Z"/><path class="b" d="M471.448,582.227a2.444,2.444,0,0,0-2.437-2.438h-13.69a2.438,2.438,0,1,0,0,4.875h13.69A2.444,2.444,0,0,0,471.448,582.227Z"/><path class="b" d="M483.53,581.249a2.445,2.445,0,0,0-2.824,1.977l-2.414,13.691a2.438,2.438,0,0,0,4.8.847l2.414-13.691A2.444,2.444,0,0,0,483.53,581.249Z"/><path class="b" d="M500.77,602.705a2.439,2.439,0,0,1,.043-.43l0,0,.006-.033.007-.037,2.258-12.809a2.437,2.437,0,0,0-4.8-.846l-2.414,13.691a2.445,2.445,0,0,0,1.977,2.824c.616.108,4.673.087,5.586.08h-.223A2.445,2.445,0,0,1,500.77,602.705Z"/><path class="b" d="M462.005,586.619a2.445,2.445,0,0,0-2.824,1.977l-2.414,13.692a2.437,2.437,0,0,0,4.8.846l2.415-13.691A2.446,2.446,0,0,0,462.005,586.619Z"/><path class="b" d="M522.846,599.115c0,.231-.929.717-1.879.76a18.642,18.642,0,0,0,5.912.633c2.343,0,4.244-.021,6.608-.148v.254a2.268,2.268,0,0,0-1.646,2.089h-5.722c-4.328,0-6.228-1.034-7.96-3.652-.274-.422-.507-.359-.739,0-.422.76-1.436,2.323-2.09,3.547a.4.4,0,0,1-.19.486l-1.69-2.534c.824-.485,1.922-1.267,2.808-1.837v-7.242h-2.617l-.127-.591h2.406l1.162-1.542,2.47,2.006a1.678,1.678,0,0,1-1.055.465v6.524a5.575,5.575,0,0,0,2.026,1.373V587.987l2.429.992h3.209a1.387,1.387,0,0,1-.359-.253,7.247,7.247,0,0,0-3.484-2.364l.085-.275a12.782,12.782,0,0,1,4.582.8,14.779,14.779,0,0,0,1.33-1.583h-8l-.19-.612h8.383l1.329-1.268,2.218,2.091c-.19.19-.4.233-.865.253a21.312,21.312,0,0,1-3.464,1.562.925.925,0,0,1-.148,1.647h1.6l1.077-1.224,2.322,1.795a1.636,1.636,0,0,1-.865.422v7.622c0,1.457-.3,2.238-2.6,2.449a3.23,3.23,0,0,0-.232-1.414,1.307,1.307,0,0,0-1.056-.655v-.295s.929.084,1.246.084c.275,0,.317-.127.317-.38v-1.837h-2.238V598.9a2.536,2.536,0,0,1-1.775.485h-.4v-3.843h-2.132Zm-8.318-15.351c6.27,1.774,4.37,6.313,2.069,4.646a14.243,14.243,0,0,0-2.239-4.54Zm8.318,5.807v2.386h2.132v-2.386Zm2.132,5.363v-2.386h-2.132v2.386Zm2.176-5.363v2.386h2.238v-2.386Zm2.238,5.363v-2.386h-2.238v2.386Z"/><path class="b" d="M537.88,596.412v2.111a2.189,2.189,0,0,1-1.878.76h-.4v-14.99l2.555.991h2.2l1.139-1.245,2.261,1.794a1.444,1.444,0,0,1-.867.444v11.169a2.937,2.937,0,0,1-1.942.782h-.38v-1.816Zm0-10.515v4.6h2.682v-4.6Zm2.682,9.9v-4.687H537.88V595.8Zm13.829-10.345a1.451,1.451,0,0,1-.886.422v14.357c0,1.668-.38,2.64-3.294,2.893a2.633,2.633,0,0,0-.613-1.689,3.8,3.8,0,0,0-2.2-.845v-.3s2.7.148,3.23.148c.423,0,.528-.126.528-.464v-4.835h-4.223c-.527,3.1-2.069,6.038-6.524,7.981l-.19-.19c3.991-3.061,4.6-6.883,4.6-11.275v-7.749l2.682.971h3.442l1.076-1.266Zm-3.23,9.078v-4.244h-3.99v1.352a26.68,26.68,0,0,1-.148,2.892Zm-3.99-9.036v4.18h3.99V585.5Z"/><path class="b" d="M555.808,588.135c5.3.739,3.314,4.687,1.309,3.168a5.862,5.862,0,0,0-1.5-3.02Zm19.868-2.681a1.422,1.422,0,0,1-.8.4v14.484c0,1.584-.318,2.471-2.745,2.682a2.98,2.98,0,0,0-.4-1.584,2.143,2.143,0,0,0-1.478-.718V600.4s1.647.127,2.027.127c.317,0,.4-.148.4-.422v-4.815h-1.964c-.212,3.126-1.14,5.934-4.9,7.855l-.254-.211c2.808-2.47,3.146-5.722,3.146-9.692v-4.137a.756.756,0,0,1-.4.1h-2.765v4.222h.275l.907-.992,1.668,1.626a1.357,1.357,0,0,1-.76.38v5.6a3.631,3.631,0,0,1-1.732.423h-.379v-1.2h-2.238v2.28c0,.211-.887.719-1.816.719h-.317v-9.734l2.238.907h.022v-4.222h-2.386l-.063-.19c-.634,2.534-1.394,5.6-1.584,6.482a10.817,10.817,0,0,0-.254,2.027c.043,1.1.866,1.921.8,3.843a1.636,1.636,0,0,1-1.668,1.73c-.465,0-.929-.294-1.056-1.1.38-2.217.295-4.223-.19-4.561a2.091,2.091,0,0,0-1.077-.337v-.4h.908c.3,0,.38-.022.591-.465.423-.781.423-.781,3.716-9.312l.338.085-.4,1.584h2.323v-5.152l2.913.274c-.042.3-.232.507-.781.591V588.6h.232l1.119-1.795s1.12,1.1,1.816,1.9v-4.687l2.407.908h1.352l1.013-1.162Zm-18.539-1.985c5.553.824,3.632,4.835,1.521,3.357a8.073,8.073,0,0,0-1.711-3.23Zm8.383,15.18v-4.6h-2.238v4.6Zm7.158-3.947v-4.371h-1.9v2.893c0,.506,0,.992-.021,1.478Zm-1.9-9.164v4.181h1.9v-4.181Z"/></g></svg>